<?xml version="1.0" encoding="UTF-8"?>
<svg height="499px" version="1.1" viewBox="0 0 1300 499" width="1300px"
     xmlns="http://www.w3.org/2000/svg">
    <!-- Generator: Sketch 46.1 (44463) - http://www.bohemiancoding.com/sketch -->
    <title>wave_background</title>
    <desc>Created with Sketch.</desc>
    <defs>
        <radialGradient cx="116.70788%" cy="110.133192%" fx="116.70788%" fy="110.133192%" gradientTransform="translate(1.167079,1.101332),scale(0.357923,1.000000),rotate(-160.534454),translate(-1.167079,-1.101332)" id="radialGradient-1" r="147.799618%">
            <stop offset="0%" stop-color="#0069FF"></stop>
            <stop offset="2.91250472%" stop-color="#0269FD"></stop>
            <stop offset="4.5053357%" stop-color="#0369FC"></stop>
            <stop offset="6.00516035%" stop-color="#0468FB"></stop>
            <stop offset="25.4821693%" stop-color="#1165EF"></stop>
            <stop offset="100%" stop-color="#4457C0"></stop>
        </radialGradient>
    </defs>
    <g fill="none" fill-rule="evenodd" id="Ressource" stroke="none" stroke-width="1">
        <g id="wave_background">
            <g id="Group-4">
                <path d="M0,1.89326617e-29 L1300,-2.84217094e-14 C1299.84369,99.0658466 1299.84369,259.045733 1300,479.93966 C939.379367,522.288692 978.893507,439.694844 650,450.952014 C321.106493,462.209185 306.589562,511.200484 0,450.952014 C1,327.508342 1,177.191004 0,1.89326617e-29 Z" fill="#C4C4C4" id="Wave" opacity="0.15"></path>
                <path d="M1.00076864,0 L925.701255,0 L1302,0 C1302,223.960943 1302,366.849893 1302,428.66685 C1221.6052,416.744841 1147.81368,399.334739 958.281774,416.744841 C768.749863,434.154944 701.824308,503.789515 426.321989,437.77475 C242.653776,393.764907 100.880036,397.003272 1.00076864,447.489845 L1.00076864,0 Z" fill="url(#radialGradient-1)" id="Wave" transform="translate(651.500384, 232.828869) scale(-1, 1) translate(-651.500384, -232.828869) "></path>
            </g>
        </g>
    </g>
</svg>